# xmcd
#
# Track frame offsets: 
#        150
#        18999
#        31078
#        50434
#        76716
#        100022
#        123002
#        143014
#        162829
#        178762
#        205106
#        222692
#        239406
#        254464
#        276875
#        293971
#        312608
#
# Disc length: 4507 seconds
#
# Revision: 2
# Processed by: cddbd v1.5.2PL0 Copyright (c) Steve Scherf et al.
# Submitted via: ExactAudioCopy v0.95a5
#
DISCID=ef119911
DTITLE=Various Artist - k-80's Navi [CD2](for Lonely Drive)
DYEAR=2005
DGENRE=Rock
TTITLE0=Journey - Don't Stop Believin'
TTITLE1=The Clash - I Fought The Law
TTITLE2=Duran Duran - Wild Boys
TTITLE3=Bonnie Tyler - Holding Out For A Hero
TTITLE4=Europe - The Final Countdown
TTITLE5=Philip Bailey (Duet With Phil Collins) - Easy Lover
TTITLE6=Eurythmics - Would I Lie To You?
TTITLE7=Santana - Hold On
TTITLE8=Eddie Money - Take Me Home Tonight
TTITLE9=New Order - True Faith
TTITLE10=The Romantics - Talking In Your Sleep
TTITLE11=Men At Work - Down Under
TTITLE12=Larry Lee - Don't Talk
TTITLE13=TOTO - Africa
TTITLE14=J.D.Souther - You're Only Lonely
TTITLE15=Daryl Hall and John Oates - Wait For Me
TTITLE16=Cheap Trick - The Flame
EXTD=
EXTT0=
EXTT1=
EXTT2=
EXTT3=
EXTT4=
EXTT5=
EXTT6=
EXTT7=
EXTT8=
EXTT9=
EXTT10=
EXTT11=
EXTT12=
EXTT13=
EXTT14=
EXTT15=
EXTT16=
PLAYORDER=
